#!OML:ASF E:\acrobat2\Project_11_07_03\Capture day 1\Session 1\Acrobat.ASF
:FULLY-SPECIFIED
:DEGREES
217
root 3.27348 16.7984 -15.885 4.88684 -12.118 -0.137148
lowerback -2.12406 2.06082 7.31151
upperback 2.1382 2.43947 0.993884
thorax 3.67875 1.38555 -2.9274
lowerneck 0.130127 -0.0868036 1.39515
upperneck -1.67586 -0.11586 -0.603205
head -0.530037 -0.0626339 -0.410108
rclavicle 3.91606e-014 -2.38542e-015
rhumerus -21.1227 -2.95086 -75.2895
rradius 23.1135
rwrist 6.63513
rhand 6.11629 -26.2198
rfingers 7.12502
rthumb 31.4341 -53.5376
lclavicle 3.91606e-014 -2.38542e-015
lhumerus -32.8017 -9.73143 88.7635
lradius 27.828
lwrist 10.4448
lhand -10.0627 -13.6388
lfingers 7.12502
lthumb 15.9232 15.7266
rfemur -13.6751 0.863863 22.6466
rtibia 41.5858
rfoot -44.1226 -10.906
rtoes -1.67902
lfemur -30.8235 0.678972 -13.7842
ltibia 50.078
lfoot -24.1817 -7.21797
ltoes 18.8631
218
root 3.29503 16.7894 -15.8834 5.00963 -12.5686 -0.4757
lowerback -1.86668 2.04182 7.74337
upperback 2.31834 2.40025 1.32963
thorax 3.72361 1.37722 -2.82612
lowerneck 0.264176 0.0358154 1.52926
upperneck -2.06377 0.0456751 -0.855252
head -0.670208 0.0181597 -0.511582
rclavicle 2.98177e-014 -1.59028e-015
rhumerus -19.2795 -2.05478 -75.2826
rradius 23.2135
rwrist 6.60433
rhand 5.5193 -26.1908
rfingers 7.12502
rthumb 30.8652 -53.6179
lclavicle 2.98177e-014 -1.59028e-015
lhumerus -33.2537 -9.86306 89.1759
lradius 28.33
lwrist 10.816
lhand -10.2951 -13.7471
lfingers 7.12502
lthumb 15.6995 15.636
rfemur -13.8426 0.913803 22.8763
rtibia 41.6917
rfoot -43.9851 -10.7182
rtoes -2.52728
lfemur -31.2848 0.457898 -13.5002
ltibia 51.0254
lfoot -24.2587 -7.03584
ltoes 17.9633
219
root 3.31739 16.7803 -15.8794 5.14425 -13.0575 -0.797107
lowerback -1.61122 2.02132 8.16089
upperback 2.5026 2.3605 1.66032
thorax 3.77385 1.36882 -2.72114
lowerneck 0.419199 0.154402 1.66959
upperneck -2.44477 0.200711 -1.12758
head -0.812338 0.0963658 -0.621704
rclavicle 3.97569e-015 -1.90833e-014
rhumerus -17.3767 -1.12499 -75.3102
rradius 23.3703
rwrist 6.50318
rhand 4.88617 -26.2218
rfingers 7.12502
rthumb 30.2614 -53.7615
lclavicle 3.97569e-015 -1.90833e-014
lhumerus -33.7514 -10.0299 89.6124
lradius 28.8353
lwrist 11.1682
lhand -10.5752 -13.8887
lfingers 7.12502
lthumb 15.4297 15.5154
rfemur -14.0193 1.00252 23.0757
rtibia 41.8023
rfoot -43.8544 -10.5084
rtoes -3.13284
lfemur -31.7627 0.236854 -13.2534
ltibia 52.0214
lfoot -24.2352 -6.94155
ltoes 16.9962
220
root 3.34002 16.7712 -15.8734 5.30186 -13.5918 -1.11205
lowerback -1.3621 2.00602 8.57292
upperback 2.69756 2.32785 1.98149
thorax 3.84045 1.36498 -2.62115
lowerneck 0.540156 0.276088 1.83494
upperneck -2.78997 0.358055 -1.4276
head -0.938052 0.176244 -0.745775
rclavicle -5.86415e-014 -3.33958e-014
rhumerus -15.4133 -0.192659 -75.3792
rradius 23.5925
rwrist 6.3445
rhand 4.23025 -26.3411
rfingers 7.12502
rthumb 29.6355 -53.9937
lclavicle -5.86415e-014 -3.33958e-014
lhumerus -34.2587 -10.2424 90.0611
lradius 29.3388
lwrist 11.4946
lhand -10.8236 -13.9613
lfingers 7.12502
lthumb 15.1904 15.4611
rfemur -14.2192 1.14716 23.2589
rtibia 41.9215
rfoot -43.724 -10.2964
rtoes -3.55475
lfemur -32.2676 0.0314062 -13.031
ltibia 53.0623
lfoot -24.1175 -6.9637
ltoes 16.104
221
root 3.36248 16.7621 -15.8652 5.48494 -14.1625 -1.41722
lowerback -1.11951 1.99439 8.97342
upperback 2.90646 2.30004 2.28833
thorax 3.9267 1.36477 -2.52781
lowerneck 0.569352 0.410718 2.01762
upperneck -3.06025 0.530418 -1.74276
head -1.02462 0.263795 -0.878139
rclavicle 1.27222e-014 -1.43125e-014
rhumerus -13.3859 0.723357 -75.4912
rradius 23.868
rwrist 6.16355
rhand 3.56165 -26.496
rfingers 7.12502
rthumb 28.9971 -54.2602
lclavicle 1.27222e-014 -1.43125e-014
lhumerus -34.75 -10.5037 90.5122
lradius 29.8204
lwrist 11.7826
lhand -11.0395 -13.9758
lfingers 7.12502
lthumb 14.9825 15.4622
rfemur -14.4479 1.32947 23.4235
rtibia 42.0507
rfoot -43.5753 -10.1045
rtoes -3.97096
lfemur -32.8014 -0.150403 -12.8377
ltibia 54.1378
lfoot -23.9157 -7.12673
ltoes 15.4407
222
root 3.38456 16.7529 -15.8542 5.68709 -14.7518 -1.69982
lowerback -0.885266 1.98102 9.34995
upperback 3.12346 2.2702 2.57811
thorax 4.02627 1.36415 -2.43761
lowerneck 0.562484 0.525299 2.24159
upperneck -3.35456 0.67318 -2.10739
head -1.11288 0.336723 -1.03396
rclavicle 3.35946e-014 -2.70347e-014
rhumerus -11.3169 1.62727 -75.6395
rradius 24.1786
rwrist 5.9762
rhand 2.85817 -26.5789
rfingers 7.12502
rthumb 28.325 -54.4567
lclavicle 3.35946e-014 -2.70347e-014
lhumerus -35.2294 -10.7891 90.9576
lradius 30.2675
lwrist 12.0142
lhand -11.2585 -14.0123
lfingers 7.12502
lthumb 14.7714 15.4413
rfemur -14.7 1.50322 23.5537
rtibia 42.1902
rfoot -43.3992 -9.94276
rtoes -4.5342
lfemur -33.3556 -0.304877 -12.691
ltibia 55.2322
lfoot -23.6461 -7.42242
ltoes 15.0193
223
root 3.40609 16.7441 -15.8404 5.91494 -15.3481 -1.95722
lowerback -0.665575 1.96614 9.69667
upperback 3.33231 2.23889 2.85394
thorax 4.12518 1.36218 -2.3444
lowerneck 0.507397 0.65877 2.47219
upperneck -3.56551 0.83969 -2.48367
head -1.16568 0.421573 -1.19522
rclavicle 7.71285e-014 8.42847e-014
rhumerus -9.25847 2.5351 -75.8109
rradius 24.5324
rwrist 5.78216
rhand 2.10327 -26.5237
rfingers 7.12502
rthumb 27.6033 -54.5191
lclavicle 7.71285e-014 8.42847e-014
lhumerus -35.7152 -11.0982 91.4103
lradius 30.6565
lwrist 12.1916
lhand -11.4782 -14.0896
lfingers 7.12502
lthumb 14.5598 15.3794
rfemur -14.9837 1.63469 23.6451
rtibia 42.3399
rfoot -43.1841 -9.80088
rtoes -5.30764
lfemur -33.9328 -0.426825 -12.5985
ltibia 56.3284
lfoot -23.3452 -7.78676
ltoes 14.5723
224
root 3.42681 16.7357 -15.8237 6.17183 -15.9529 -2.18313
lowerback -0.463371 1.95648 9.99849
upperback 3.51853 2.21609 3.11748
thorax 4.20994 1.36229 -2.23814
lowerneck 0.441559 0.804266 2.7058
upperneck -3.68869 1.02223 -2.86597
head -1.18769 0.514499 -1.35943
rclavicle 1.70955e-014 -2.70347e-014
rhumerus -7.259 3.44888 -75.9937
rradius 24.9389
rwrist 5.58897
rhand 1.29757 -26.3187
rfingers 7.12502
rthumb 26.8326 -54.4349
lclavicle 1.70955e-014 -2.70347e-014
lhumerus -36.2362 -11.4583 91.8943
lradius 30.9776
lwrist 12.339
lhand -11.664 -14.1684
lfingers 7.12502
lthumb 14.3808 15.3135
rfemur -15.3063 1.72567 23.6925
rtibia 42.5003
rfoot -42.9414 -9.67622
rtoes -6.27713
lfemur -34.5303 -0.51365 -12.5719
ltibia 57.412
lfoot -23.0435 -8.15312
ltoes 13.9527
225
root 3.44627 16.7275 -15.8041 6.45283 -16.5722 -2.37952
lowerback -0.274448 1.95884 10.2444
upperback 3.67548 2.21208 3.37238
thorax 4.2714 1.36842 -2.10911
lowerneck 0.401596 0.957266 2.94684
upperneck -3.73958 1.21613 -3.25306
head -1.18987 0.61324 -1.5272
rclavicle -4.41302e-014 3.18055e-015
rhumerus -5.34748 4.34565 -76.1838
rradius 25.3984
rwrist 5.41683
rhand 0.473355 -25.9763
rfingers 7.12502
rthumb 26.0437 -54.2112
lclavicle -4.41302e-014 3.18055e-015
lhumerus -36.82 -11.8836 92.4234
lradius 31.2498
lwrist 12.4693
lhand -11.7372 -14.2019
lfingers 7.12502
lthumb 14.3102 15.2849
rfemur -15.6654 1.79847 23.704
rtibia 42.6715
rfoot -42.6832 -9.60747
rtoes -7.50438
lfemur -35.1334 -0.56172 -12.6101
ltibia 58.4742
lfoot -22.7458 -8.50612
ltoes 13.2482
226
root 3.4641 16.7191 -15.7819 6.75847 -17.2021 -2.56387
lowerback -0.0863852 1.9753 10.4423
upperback 3.79333 2.23179 3.62532
thorax 4.29244 1.38201 -1.95559
lowerneck 0.437718 1.10748 3.18772
upperneck -3.7611 1.40875 -3.64032
head -1.19473 0.711964 -1.69662
rclavicle -6.99722e-014 -2.06736e-014
rhumerus -3.56296 5.21561 -76.3854
rradius 25.9252
rwrist 5.28174
rhand -0.332162 -25.5526
rfingers 7.12502
rthumb 25.2722 -53.8986
lclavicle -6.99722e-014 -2.06736e-014
lhumerus -37.4947 -12.3681 93.0044
lradius 31.4901
lwrist 12.5588
lhand -11.6288 -14.1629
lfingers 7.12502
lthumb 14.4147 15.3165
rfemur -16.0409 1.8905 23.7031
rtibia 42.8504
rfoot -42.4521 -9.51492
rtoes -8.71767
lfemur -35.7381 -0.566411 -12.6928
ltibia 59.5119
lfoot -22.4521 -8.85312
ltoes 12.494
227
root 3.48028 16.7101 -15.7571 7.08181 -17.8343 -2.74567
lowerback 0.103241 2.00334 10.6074
upperback 3.88071 2.27131 3.87472
thorax 4.281 1.40214 -1.78784
lowerneck 0.572128 1.23433 3.42746
upperneck -3.8223 1.57216 -4.02488
head -1.22918 0.797121 -1.86764
rclavicle -1.51076e-014 2.8625e-014
rhumerus -1.91656 6.06039 -76.6098
rradius 26.5303
rwrist 5.20042
rhand -1.11434 -25.1002
rfingers 7.12502
rthumb 24.5226 -53.55
lclavicle -1.51076e-014 2.8625e-014
lhumerus -38.2392 -12.8917 93.6245
lradius 31.6926
lwrist 12.5851
lhand -11.3356 -14.073
lfingers 7.12502
lthumb 14.6972 15.3861
rfemur -16.4129 2.01454 23.7021
rtibia 43.0297
rfoot -42.2704 -9.37875
rtoes -9.79673
lfemur -36.3341 -0.53436 -12.8074
ltibia 60.523
lfoot -22.1544 -9.22062
ltoes 11.8355
228
root 3.49463 16.7009 -15.7293 7.41174 -18.4618 -2.92882
lowerback 0.28662 2.04236 10.7603
upperback 3.95946 2.32664 4.10935
thorax 4.26568 1.42948 -1.62804
lowerneck 0.760659 1.34362 3.687
upperneck -3.92314 1.71348 -4.40574
head -1.28573 0.87178 -2.04359
rclavicle -5.60573e-014 -7.95139e-015
rhumerus -0.392295 6.85329 -76.8719
rradius 27.2176
rwrist 5.172
rhand -1.84166 -24.6661
rfingers 7.12502
rthumb 23.8253 -53.2087
lclavicle -5.60573e-014 -7.95139e-015
lhumerus -38.9975 -13.4636 94.2612
lradius 31.8385
lwrist 12.5617
lhand -10.9004 -13.9658
lfingers 7.12502
lthumb 15.1165 15.4621
rfemur -16.7514 2.17341 23.7063
rtibia 43.1976
rfoot -42.1543 -9.18098
rtoes -10.6185
lfemur -36.9052 -0.473613 -12.9444
ltibia 61.5034
lfoot -21.8405 -9.6402
ltoes 11.5881
